<mxfile host="Electron" modified="2024-07-30T19:37:48.514Z" agent="Mozilla/5.0 (Windows NT 10.0; Win64; x64) AppleWebKit/537.36 (KHTML, like Gecko) draw.io/22.1.16 Chrome/120.0.6099.109 Electron/28.1.0 Safari/537.36" etag="BXSmcKfYLWelXQ-2lWux" version="22.1.16" type="device">
  <diagram name="Page 1" id="Page-1">
    <mxGraphModel dx="1418" dy="1160" grid="1" gridSize="10" guides="1" tooltips="1" connect="1" arrows="1" fold="1" page="1" pageScale="1" pageWidth="800" pageHeight="220" math="0" shadow="0">
      <root>
        <mxCell id="0" />
        <mxCell id="1" parent="0" />
        <mxCell id="7YUNhZsP9ndvsF6Or2C0-57" value=".lib" style="whiteSpace=wrap;html=1;shape=mxgraph.basic.document;fillColor=#f5f5f5;strokeColor=#666666;fontColor=#333333;" parent="1" vertex="1">
          <mxGeometry x="210" y="-87" width="60" height="80" as="geometry" />
        </mxCell>
        <mxCell id="7YUNhZsP9ndvsF6Or2C0-53" style="edgeStyle=orthogonalEdgeStyle;rounded=0;orthogonalLoop=1;jettySize=auto;html=1;exitX=1;exitY=0.5;exitDx=0;exitDy=0;exitPerimeter=0;" parent="1" source="7YUNhZsP9ndvsF6Or2C0-52" target="7YUNhZsP9ndvsF6Or2C0-50" edge="1">
          <mxGeometry relative="1" as="geometry" />
        </mxCell>
        <mxCell id="7YUNhZsP9ndvsF6Or2C0-52" value=".o" style="whiteSpace=wrap;html=1;shape=mxgraph.basic.document;fillColor=#dae8fc;strokeColor=#6c8ebf;" parent="1" vertex="1">
          <mxGeometry x="210" y="-202" width="60" height="80" as="geometry" />
        </mxCell>
        <UserObject label="" tags="Diagramme_de_flux Lien" id="49">
          <mxCell parent="1" vertex="1" visible="0">
            <mxGeometry as="geometry" />
          </mxCell>
        </UserObject>
        <mxCell id="7YUNhZsP9ndvsF6Or2C0-49" value=".o" style="whiteSpace=wrap;html=1;shape=mxgraph.basic.document;fillColor=#dae8fc;strokeColor=#6c8ebf;" parent="1" vertex="1">
          <mxGeometry x="200" y="-212" width="60" height="80" as="geometry" />
        </mxCell>
        <mxCell id="7YUNhZsP9ndvsF6Or2C0-54" style="edgeStyle=orthogonalEdgeStyle;rounded=0;orthogonalLoop=1;jettySize=auto;html=1;exitX=1;exitY=0.5;exitDx=0;exitDy=0;" parent="1" source="7YUNhZsP9ndvsF6Or2C0-50" target="7YUNhZsP9ndvsF6Or2C0-51" edge="1">
          <mxGeometry relative="1" as="geometry" />
        </mxCell>
        <mxCell id="7YUNhZsP9ndvsF6Or2C0-50" value="Link&lt;br&gt;&lt;font face=&quot;Lucida Console&quot;&gt;&lt;b&gt;gcc&lt;/b&gt;&lt;/font&gt;" style="rounded=0;whiteSpace=wrap;html=1;" parent="1" vertex="1">
          <mxGeometry x="340" y="-192" width="120" height="60" as="geometry" />
        </mxCell>
        <mxCell id="7YUNhZsP9ndvsF6Or2C0-51" value=".out&lt;br&gt;.exe" style="whiteSpace=wrap;html=1;shape=mxgraph.basic.document;fillColor=#dae8fc;strokeColor=#6c8ebf;" parent="1" vertex="1">
          <mxGeometry x="530" y="-202" width="60" height="80" as="geometry" />
        </mxCell>
        <mxCell id="7YUNhZsP9ndvsF6Or2C0-56" style="edgeStyle=orthogonalEdgeStyle;orthogonalLoop=1;jettySize=auto;html=1;entryX=0;entryY=0.5;entryDx=0;entryDy=0;rounded=1;" parent="1" source="7YUNhZsP9ndvsF6Or2C0-57" target="7YUNhZsP9ndvsF6Or2C0-50" edge="1">
          <mxGeometry relative="1" as="geometry" />
        </mxCell>
        <mxCell id="7YUNhZsP9ndvsF6Or2C0-55" value=".lib" style="whiteSpace=wrap;html=1;shape=mxgraph.basic.document;fillColor=#f5f5f5;strokeColor=#666666;fontColor=#333333;" parent="1" vertex="1">
          <mxGeometry x="200" y="-97" width="60" height="80" as="geometry" />
        </mxCell>
      </root>
    </mxGraphModel>
  </diagram>
</mxfile>
